<svg xmlns="http://www.w3.org/2000/svg" width="152.722" height="152.722"><path d="M106.56 51.117c-1.771 2.508-2.736 18.995-2.053 20.987.473 1.361 1.034 2.692 3.771 4.274 2.907-11.957 3.879-33.19-1.718-25.261z"/><path d="M76.361 0C34.189 0 .001 34.189.001 76.362c0 42.175 34.188 76.36 76.36 76.36 42.175 0 76.36-34.188 76.36-76.36S118.536 0 76.361 0zm37.362 100.869c-13.771 26.912-30.569 31.375-44.264 16.455-1.426.961-2.956 1.951-4.441 2.998-5.685 3.99-11.546 7.752-18.682 3.817-7.554-4.168-9.361-11.788-8.464-19.217 1.336-11 8.049-32.746 8.049-32.746s6.555-17.175 3.675-23.476c-2.825-4.789-6.829-3.006-8.02.272-3.312 11.853 7.801 11.824 1.6 23.396-2.907 5.431-11.633 7.95-18.31 2.39-6.827-5.687-7.671-15.042-5.076-22.688 2.088-6.146 5.132-10.534 10.159-15.743 6.835-7.082 17.209-8.656 26.394-4.048 7.796 3.911 11.618 12.926 9.314 23.404-2.833 12.904-6.64 25.593-9.511 38.492 0 0-2.07 11.229 3.742 13.066 6.422.75 8.37-8.639 8.37-8.639.82-8.564.039-18.31 2.922-26.326 1.215-3.377 4.823-9.55 10.976-7.505 5.879 1.954 5.234 8.758 4.881 12.411-.771 7.823-5.041 14.592-6.822 22.36-.617 2.68-.866 6.164 2.281 8.252 3.15 2.088 8.443-1.644 8.443-1.644s9.855-5.85 10.161-18.461c-7.266-8.588-8.239-12.773-8.239-12.773-2.758-9.043.446-22.659.446-22.659 1.38-9.203 7.216-15.069 14.897-15.341 5.576-.194 13.277 4.521 13.857 17.204 0 0 .896 6.046-5.095 34.018.896 1.403.884 2.075 2.774 3.212 3.318 2.002 6.662 2.354 8.992.954 4.092-2.462 6.522-6.89 8.404-11.378 6.09-3.197-.031 8.363-2.396 12.205-4.862 7.959-11.788 11.515-21.017 7.738z"/></svg>
