<svg width="343" height="96" viewBox="0 0 343 96" fill="none" xmlns="http://www.w3.org/2000/svg">
<path fill-rule="evenodd" clip-rule="evenodd" d="M25.3006 38.1526C19.0645 31.9165 19.0645 21.8059 25.3006 15.5698C31.5366 9.33375 41.6473 9.33375 47.8833 15.5698L48.6625 16.3489L48.6671 16.3535C54.8807 22.5914 54.8732 32.6853 48.6447 38.9138L37.3533 50.2052L25.3006 38.1526Z" fill="#bb87e6"/>
<path d="M37.28 50.1321L21.4681 65.9441C15.232 72.1801 15.232 82.2908 21.4681 88.5268C27.7041 94.7629 37.8148 94.7629 44.0508 88.5268L75.2159 57.3617C79.2066 53.371 79.207 46.9009 75.2167 42.9096L48.6624 16.3489C54.8806 22.5864 54.8747 32.6837 48.6445 38.9139L37.3532 50.2052L37.28 50.1321Z" fill="#FCFCFC"/>
<path d="M109.039 71.3431H116.89V32.4328H130.928V25.4892H95V32.4328H109.039V71.3431Z" fill="#FCFCFC"/>
<path d="M137.881 71.3431H146.996L153.849 46.451H154.115L160.702 71.3431H169.817L178.933 38.1973V37.5422H171.414L165.293 62.4343H165.027L158.44 37.5422H149.325L142.738 62.4343H142.472L136.351 37.5422H128.766V38.1973L137.881 71.3431Z" fill="#FCFCFC"/>
<path d="M185.661 32.3673C188.789 32.3673 190.518 30.5331 190.518 27.6509C190.518 24.7686 188.789 23 185.661 23C182.468 23 180.804 24.7686 180.804 27.6509C180.804 30.5331 182.468 32.3673 185.661 32.3673ZM181.869 71.3431H189.454V37.5422H181.869V71.3431Z" fill="#FCFCFC"/>
<path d="M209.614 71.9326C218.995 71.9326 223.785 66.5612 224.384 59.0935H216.799C216.4 62.9584 213.739 65.3821 209.414 65.3821C203.559 65.3821 200.964 61.1242 200.964 54.4426C200.964 47.8921 203.559 43.5687 209.414 43.5687C213.672 43.5687 216.4 46.0579 216.733 49.8573H224.318C223.852 42.5862 219.061 36.9527 209.414 36.9527C198.902 36.9527 193.246 44.0273 193.246 54.4426C193.246 64.9235 199.035 71.9326 209.614 71.9326Z" fill="#FCFCFC"/>
<path d="M229.767 71.3431H237.551V55.2942H248.662C258.044 55.2942 264.032 49.0057 264.032 40.228C264.032 31.7122 258.177 25.4892 248.662 25.4892H229.767V71.3431ZM237.551 48.3506V32.3673H247.332C252.721 32.3673 256.048 35.184 256.048 40.228C256.048 45.5339 252.921 48.3506 247.332 48.3506H237.551Z" fill="#FCFCFC"/>
<path d="M272.842 32.3673C275.969 32.3673 277.699 30.5331 277.699 27.6509C277.699 24.7686 275.969 23 272.842 23C269.648 23 267.985 24.7686 267.985 27.6509C267.985 30.5331 269.648 32.3673 272.842 32.3673ZM269.049 71.3431H276.634V37.5422H269.049V71.3431Z" fill="#FCFCFC"/>
<path d="M296.794 71.9326C306.175 71.9326 310.966 66.5612 311.565 59.0935H303.98C303.58 62.9584 300.919 65.3821 296.594 65.3821C290.739 65.3821 288.145 61.1242 288.145 54.4426C288.145 47.8921 290.739 43.5687 296.594 43.5687C300.853 43.5687 303.58 46.0579 303.913 49.8573H311.498C311.032 42.5862 306.242 36.9527 296.594 36.9527C286.082 36.9527 280.427 44.0273 280.427 54.4426C280.427 64.9235 286.215 71.9326 296.794 71.9326Z" fill="#FCFCFC"/>
<path d="M328.324 71.9326C336.308 71.9326 342.563 68.2643 342.563 61.7138C342.563 55.2942 338.571 52.8705 332.583 51.6259L326.728 50.5123C323.867 50.0538 322.203 48.8747 322.203 46.844C322.203 44.3548 324.532 42.9792 327.925 42.9792C331.851 42.9792 334.179 44.9443 334.312 48.0231H341.764C341.764 41.4726 336.308 36.9527 328.058 36.9527C319.741 36.9527 314.818 41.2105 314.818 46.7785C314.818 52.543 318.743 55.6217 324.332 56.7353L330.387 57.8489C333.514 58.504 334.911 59.8141 334.911 61.7138C334.911 64.072 332.649 65.5131 328.324 65.5131C324 65.5131 321.338 63.4169 321.338 60.0761H313.753C313.953 67.2162 319.076 71.9326 328.324 71.9326Z" fill="#FCFCFC"/>
</svg>
